<svg width="100%" height="100%" id="svg" viewBox="0 0 1440 487" xmlns="http://www.w3.org/2000/svg"><path d="M 0,497 C 0,497 0,124 0,124 C 114.32535885167468,135.40669856459328 228.65071770334936,146.8133971291866 314,148 C 399.34928229665064,149.1866028708134 455.72248803827745,140.1531100478469 552,129 C 648.2775119617226,117.8468899521531 784.4593301435406,104.57416267942583 897,111 C 1009.5406698564594,117.42583732057417 1098.44019138756,143.55023923444978 1185,149 C 1271.55980861244,154.44976076555022 1355.77990430622,139.2248803827751 1440,124 C 1440,124 1440,497 1440,497 Z" stroke="none" stroke-width="0" fill="#424242" fill-opacity="0.4" class="path-0" style="transition-property: all; transition-timing-function: cubic-bezier(0.4, 0, 0.2, 1); transition-duration: 300ms; transition-delay: 150ms;"></path><path d="M 0,497 C 0,497 0,248 0,248 C 87.79904306220098,261.6937799043062 175.59808612440196,275.3875598086124 275,268 C 374.40191387559804,260.6124401913876 485.4066985645933,232.14354066985646 572,220 C 658.5933014354067,207.85645933014354 720.7751196172248,212.0382775119617 823,211 C 925.2248803827752,209.9617224880383 1067.4928229665072,203.70334928229667 1177,209 C 1286.5071770334928,214.29665071770333 1363.2535885167463,231.14832535885165 1440,248 C 1440,248 1440,497 1440,497 Z" stroke="none" stroke-width="0" fill="#424242" fill-opacity="0.53" class="path-1" style="transition-property: all; transition-timing-function: cubic-bezier(0.4, 0, 0.2, 1); transition-duration: 300ms; transition-delay: 150ms;"></path><path d="M 0,497 C 0,497 0,372 0,372 C 80.10526315789474,381.42583732057415 160.21052631578948,390.85167464114835 258,379 C 355.7894736842105,367.14832535885165 471.2631578947369,334.0191387559808 581,327 C 690.7368421052631,319.9808612440192 794.736842105263,339.0717703349282 884,360 C 973.263157894737,380.9282296650718 1047.7894736842106,403.69377990430627 1138,406 C 1228.2105263157894,408.30622009569373 1334.1052631578946,390.1531100478469 1440,372 C 1440,372 1440,497 1440,497 Z" stroke="none" stroke-width="0" fill="#424242" fill-opacity="1" class="path-2" style="transition-property: all; transition-timing-function: cubic-bezier(0.4, 0, 0.2, 1); transition-duration: 300ms; transition-delay: 150ms;"></path></svg>